<?xml version="1.0" encoding="utf-8"?>
<!-- Generator: Adobe Illustrator 16.0.0, SVG Export Plug-In . SVG Version: 6.00 Build 0)  -->
<!DOCTYPE svg PUBLIC "-//W3C//DTD SVG 1.1//EN" "http://www.w3.org/Graphics/SVG/1.1/DTD/svg11.dtd">
<svg version="1.1" id="Layer_1" xmlns="http://www.w3.org/2000/svg" xmlns:xlink="http://www.w3.org/1999/xlink" x="0px" y="0px"
	 width="200px" height="200px" viewBox="0 0 200 200" enable-background="new 0 0 200 200" xml:space="preserve">
<path fill-rule="evenodd" clip-rule="evenodd" fill="#475993" d="M98.857,96.448c-6.049,0-11.557-0.022-17.064,0.007
	c-4.182,0.021-6.07,1.788-6.079,5.906c-0.016,6.939,0.044,13.882,0.19,20.821c0.087,4.083,1.605,5.464,5.68,5.478
	c5.603,0.02,11.206,0.006,17.058,0.006c0,23.748,0,47.271,0,71.152c-1.044,0.057-2.12,0.164-3.197,0.164
	c-22.563,0.01-45.128,0.031-67.691-0.002c-16.245-0.023-27.751-11.58-27.752-27.795C0,123.994-0.001,75.803,0.001,27.613
	C0.002,11.624,11.624,0.004,27.617,0.004c48.293-0.002,96.586-0.003,144.879,0c15.768,0.001,27.467,11.623,27.478,27.452
	c0.035,48.395,0.035,96.79,0.001,145.185c-0.012,15.607-11.706,27.289-27.296,27.338c-13.578,0.043-27.158-0.004-40.737-0.018
	c-0.302-0.002-0.603-0.088-1.189-0.178c0-23.566,0-47.16,0-71.117c6.498,0,12.9,0,19.303,0c8.734,0,8.831,0.014,10.124-8.533
	c0.867-5.738,1.483-11.519,2.082-17.293c0.458-4.434-1.417-6.369-6-6.385c-7.352-0.026-14.702-0.007-22.053-0.008
	c-1.102,0-2.203,0-3.744,0c0-3.319-0.003-6.344,0-9.368c0.006-4.084-0.103-8.172,0.046-12.25c0.271-7.42,4.304-11.464,11.718-11.738
	c4.385-0.162,8.779-0.044,13.169-0.104c4.237-0.058,5.988-1.73,6.038-5.931c0.069-5.819,0.03-11.639,0.004-17.458
	c-0.012-2.773-1.185-5.16-4.086-5.188c-10.476-0.099-21.038-1.302-31.383,1.296c-14.606,3.669-24.702,14.598-26.322,29.55
	c-0.963,8.888-0.576,17.921-0.786,26.889C98.831,93.448,98.857,94.753,98.857,96.448z"/>
</svg>
