<?xml version="1.0" encoding="utf-8"?>
<!-- Generator: Adobe Illustrator 16.0.0, SVG Export Plug-In . SVG Version: 6.00 Build 0)  -->
<!DOCTYPE svg PUBLIC "-//W3C//DTD SVG 1.1//EN" "http://www.w3.org/Graphics/SVG/1.1/DTD/svg11.dtd">
<svg version="1.1" id="Layer_1" xmlns="http://www.w3.org/2000/svg" xmlns:xlink="http://www.w3.org/1999/xlink" x="0px" y="0px"
	 width="200px" height="200px" viewBox="0 0 200 200" enable-background="new 0 0 200 200" xml:space="preserve">
<path display="none" fill-rule="evenodd" clip-rule="evenodd" fill="#475993" d="M98.857,96.448c-6.049,0-11.557-0.022-17.064,0.007
	c-4.182,0.021-6.07,1.788-6.079,5.906c-0.016,6.939,0.044,13.882,0.19,20.821c0.087,4.083,1.605,5.464,5.68,5.478
	c5.603,0.02,11.206,0.006,17.058,0.006c0,23.748,0,47.271,0,71.152c-1.044,0.057-2.12,0.164-3.197,0.164
	c-22.563,0.01-45.128,0.031-67.691-0.002c-16.245-0.023-27.751-11.58-27.752-27.795C0,123.994-0.001,75.803,0.001,27.613
	C0.002,11.624,11.624,0.004,27.617,0.004c48.293-0.002,96.586-0.003,144.879,0c15.768,0.001,27.467,11.623,27.478,27.452
	c0.035,48.395,0.035,96.79,0.001,145.185c-0.012,15.607-11.706,27.289-27.296,27.338c-13.578,0.043-27.158-0.004-40.737-0.018
	c-0.302-0.002-0.603-0.088-1.189-0.178c0-23.566,0-47.16,0-71.117c6.498,0,12.9,0,19.303,0c8.734,0,8.831,0.014,10.124-8.533
	c0.867-5.738,1.483-11.519,2.082-17.293c0.458-4.434-1.417-6.369-6-6.385c-7.352-0.026-14.702-0.007-22.053-0.008
	c-1.102,0-2.203,0-3.744,0c0-3.319-0.003-6.344,0-9.368c0.006-4.084-0.103-8.172,0.046-12.25c0.271-7.42,4.304-11.464,11.718-11.738
	c4.385-0.162,8.779-0.044,13.169-0.104c4.237-0.058,5.988-1.73,6.038-5.931c0.069-5.819,0.03-11.639,0.004-17.458
	c-0.012-2.773-1.185-5.16-4.086-5.188c-10.476-0.099-21.038-1.302-31.383,1.296c-14.606,3.669-24.702,14.598-26.322,29.55
	c-0.963,8.888-0.576,17.921-0.786,26.889C98.831,93.448,98.857,94.753,98.857,96.448z"/>
<g>
	
		<linearGradient id="SVGID_1_" gradientUnits="userSpaceOnUse" x1="841.3262" y1="1009.207" x2="841.3262" y2="464.0571" gradientTransform="matrix(0.363 0 0 0.363 -205.363 -166.8772)">
		<stop  offset="0" style="stop-color:#E09B3D"/>
		<stop  offset="0.3" style="stop-color:#C74C4D"/>
		<stop  offset="0.6" style="stop-color:#C21975"/>
		<stop  offset="1" style="stop-color:#7024C4"/>
	</linearGradient>
	<path fill="url(#SVGID_1_)" d="M140.419,0H59.581C26.728,0,0,26.728,0,59.581v80.838C0,173.271,26.728,200,59.581,200h80.838
		C173.271,200,200,173.271,200,140.419V59.581C200,26.728,173.271,0,140.419,0z M179.88,140.419
		c0,21.794-17.667,39.461-39.461,39.461H59.581c-21.793,0-39.461-17.667-39.461-39.461V59.581c0-21.794,17.667-39.461,39.461-39.461
		h80.838c21.794,0,39.461,17.667,39.461,39.461V140.419L179.88,140.419z"/>
	
		<linearGradient id="SVGID_2_" gradientUnits="userSpaceOnUse" x1="841.3252" y1="1009.207" x2="841.3252" y2="464.0571" gradientTransform="matrix(0.363 0 0 0.363 -205.363 -166.8772)">
		<stop  offset="0" style="stop-color:#E09B3D"/>
		<stop  offset="0.3" style="stop-color:#C74C4D"/>
		<stop  offset="0.6" style="stop-color:#C21975"/>
		<stop  offset="1" style="stop-color:#7024C4"/>
	</linearGradient>
	<path fill="url(#SVGID_2_)" d="M100,48.273c-28.522,0-51.727,23.205-51.727,51.727S71.478,151.727,100,151.727
		s51.727-23.205,51.727-51.727C151.727,71.477,128.522,48.273,100,48.273z M100,131.607c-17.456,0-31.607-14.151-31.607-31.607
		S82.544,68.393,100,68.393S131.607,82.544,131.607,100S117.456,131.607,100,131.607z"/>
	
		<linearGradient id="SVGID_3_" gradientUnits="userSpaceOnUse" x1="984.1201" y1="1009.207" x2="984.1201" y2="464.0571" gradientTransform="matrix(0.363 0 0 0.363 -205.363 -166.8772)">
		<stop  offset="0" style="stop-color:#E09B3D"/>
		<stop  offset="0.3" style="stop-color:#C74C4D"/>
		<stop  offset="0.6" style="stop-color:#C21975"/>
		<stop  offset="1" style="stop-color:#7024C4"/>
	</linearGradient>
	<circle fill="url(#SVGID_3_)" cx="151.827" cy="48.661" r="12.395"/>
</g>
</svg>
