<?xml version="1.0" encoding="utf-8"?>
<!-- Generator: Adobe Illustrator 16.0.0, SVG Export Plug-In . SVG Version: 6.00 Build 0)  -->
<!DOCTYPE svg PUBLIC "-//W3C//DTD SVG 1.1//EN" "http://www.w3.org/Graphics/SVG/1.1/DTD/svg11.dtd">
<svg version="1.1" id="Layer_1" xmlns="http://www.w3.org/2000/svg" xmlns:xlink="http://www.w3.org/1999/xlink" x="0px" y="0px"
	 width="2400px" height="2400px" viewBox="0 0 2400 2400" enable-background="new 0 0 2400 2400" xml:space="preserve">
<g>
	<path fill="#231F20" d="M940.234,1038.283h36.816l28.658,126.089l35.257-126.089h31.131l35.949,126.089l28.608-126.089h36.862
		l-44.84,197.523h-35.946l-36.403-127.693l-35.719,127.693h-35.44L940.234,1038.283z M816.76,1070.196
		c-18.205,0-33.517,6.372-45.896,19.072c-12.424,12.7-18.615,28.841-18.615,48.465c0,21.821,7.794,39.108,23.429,51.806
		c12.15,9.95,26.042,14.902,41.771,14.902c17.742,0,32.872-6.465,45.344-19.348c12.516-12.884,18.751-28.746,18.751-47.637
		c0-18.798-6.282-34.71-18.889-47.729C850.093,1076.705,834.778,1070.196,816.76,1070.196z M817.31,1033.331
		c27.922,0,51.948,10.133,72.032,30.354c20.127,20.221,30.168,44.887,30.168,73.956c0,28.838-9.903,53.231-29.758,73.179
		c-19.808,19.94-43.877,29.938-72.168,29.938c-29.665,0-54.285-10.271-73.862-30.766c-19.625-20.493-29.436-44.839-29.436-73.037
		c0-18.845,4.585-36.223,13.709-52.088c9.124-15.819,21.687-28.379,37.643-37.643
		C781.638,1037.963,798.878,1033.331,817.31,1033.331z M520.983,1038.283h35.669l85.098,129.983v-129.983h37.413v197.523h-35.946
		l-84.82-129.572v129.572h-37.415V1038.283z M350.379,1038.283h37.962v68.317l53.461-68.317h45.347l-69.006,88.17l75.698,109.353
		H449.23l-60.889-87.988v87.988h-37.962V1038.283z"/>
	<path fill-rule="evenodd" clip-rule="evenodd" fill="#231F20" d="M1956.481,1190.479l-7.302,4.394
		c3.067,5.158,6.253,9.708,9.548,13.637c4.079,4.874,8.276,8.728,12.578,11.551c4.296,2.825,8.871,4.953,13.693,6.372
		c4.797,1.416,9.888,2.123,15.269,2.123c6.956,0,13.338-1.157,19.137-3.47c5.793-2.31,11.103-5.805,15.924-10.482
		c4.797-4.658,8.392-9.713,10.767-15.14c2.35-5.37,3.527-11.189,3.527-17.448c0-4.328-0.692-8.628-2.071-12.898
		c-1.414-4.379-3.553-8.779-6.397-13.183c-2.871-4.425-7.039-9.237-12.481-14.43c-5.586-5.331-12.464-11.009-20.617-17.029
		c-6.981-5.117-12.62-9.333-16.9-12.627c-4.354-3.349-7.229-5.701-8.613-7.036l-0.083-0.062c-2.436-2.432-4.558-4.849-6.371-7.258
		c-1.863-2.481-3.31-4.871-4.332-7.177c-1.017-2.294-1.792-4.639-2.304-7.022c-0.521-2.401-0.789-4.823-0.789-7.258
		c0-4.182,0.774-8.05,2.308-11.618c1.524-3.547,3.795-6.754,6.806-9.627l0.021-0.021c3.011-2.842,6.45-4.985,10.322-6.411
		c3.785-1.394,7.941-2.093,12.46-2.093c3.438,0,6.806,0.446,10.101,1.35c3.263,0.893,6.376,2.228,9.34,4.001
		c2.959,1.74,6.155,4.371,9.584,7.872c2.323,2.368,4.771,5.143,7.327,8.316l7.373-5.592c-3.155-4.012-6.238-7.495-9.238-10.448
		c-3.877-3.821-7.584-6.731-11.105-8.719h-0.021c-3.543-2.022-7.229-3.535-11.039-4.542c-3.801-1.002-7.771-1.502-11.912-1.502
		c-3.895,0-7.596,0.439-11.117,1.317c-3.537,0.883-6.936,2.204-10.184,3.965v0.021c-3.273,1.776-6.148,3.85-8.627,6.217
		c-2.49,2.371-4.607,5.058-6.362,8.055l0.016,0.008c-1.782,3.049-3.113,6.238-3.986,9.558c-0.883,3.346-1.322,6.901-1.322,10.655
		c0,4.725,0.748,9.248,2.241,13.563c1.523,4.366,3.826,8.605,6.914,12.7l0.041,0.083c1.725,2.37,4.952,5.625,9.672,9.759
		c4.844,4.242,11.272,9.393,19.28,15.442c8.163,6.132,15.036,11.806,20.618,17.019c5.815,5.432,10.344,10.449,13.581,15.029
		c2.452,3.48,4.316,7.053,5.587,10.714c1.301,3.749,1.951,7.502,1.951,11.267c0,3.274-0.439,6.5-1.322,9.681
		c-0.866,3.14-2.158,6.166-3.872,9.063c-1.72,2.958-3.872,5.644-6.439,8.04c-2.494,2.333-5.37,4.362-8.623,6.077
		c-3.206,1.693-6.548,2.974-10.007,3.83c-3.48,0.868-7.043,1.302-10.678,1.302c-8.773,0-16.979-3.046-24.595-9.134
		C1967.583,1206.305,1961.825,1199.387,1956.481,1190.479 M1945.927,1041.828h-99.6v181.899h98.799v-8.189h-90.072V1129.1h90.072
		v-8.19h-90.072v-70.893h90.873V1041.828z M1639.133,1047.947l-24.356,175.781h8.267l17.842-134.253l2.137-17.303l7.823,15.65
		l66.64,134.408l65.976-133.337l7.735-15.989l2.221,17.601l18.661,133.223h7.951l-25.063-174.136l-77.263,156.746L1639.133,1047.947
		z M1479.879,1144.735l37.885-80.17l41.283,87.708h-82.731L1479.879,1144.735z M1601.697,1223.728l-83.949-179.922l-84.95,179.922
		h9.779l29.887-63.264h90.083l30.067,63.264H1601.697z M1316.338,1120.717v-70.7h39.331c6.79,0,12.671,0.294,17.634,0.886
		c5.173,0.617,9.413,1.585,12.697,2.904c3.397,1.363,6.443,3.137,9.129,5.334c2.695,2.205,5.07,4.856,7.115,7.952
		c2.05,3.08,3.594,6.335,4.61,9.744c1.033,3.452,1.55,7.048,1.55,10.771c0,3.767-0.511,7.413-1.528,10.937v0.018
		c-1.012,3.508-2.515,6.811-4.503,9.903l-0.021,0.021c-2.046,3.153-4.503,5.879-7.348,8.18c-2.804,2.267-6.011,4.118-9.604,5.551
		c-3.496,1.389-7.849,2.419-13.048,3.083c-5.087,0.651-10.91,0.973-17.489,0.973l-0.041-0.023l-38.484-0.31V1120.717z
		 M1340.746,1041.828h-33.135v181.899h8.727v-89.534h18.939l69.296,89.534h10.301l-69.233-89.454l10.674-0.06
		c7.775-0.041,14.722-0.56,20.819-1.551c5.917-0.965,10.957-2.368,15.098-4.203v-0.021c4.142-1.831,7.782-4.077,10.917-6.741
		c3.112-2.644,5.752-5.713,7.904-9.202l0.021-0.041c2.184-3.478,3.826-7.268,4.926-11.36c1.11-4.138,1.668-8.608,1.668-13.397
		c0-5.724-0.806-10.952-2.407-15.677c-1.579-4.652-3.954-8.876-7.126-12.658l-0.02-0.021c-3.196-3.862-6.857-7.03-10.973-9.504
		c-4.166-2.509-8.846-4.348-14.04-5.518h-0.021c-3.527-0.81-8.793-1.43-15.774-1.853
		C1360.296,1042.044,1351.439,1041.828,1340.746,1041.828z M1285.113,1041.828h-85.932v181.899h8.727V1129.1h77.205v-8.19h-77.205
		v-70.893h77.205V1041.828z"/>
	<path fill="#231F20" d="M1849.188,1277.413h9.96l22.52,36.362l22.13-36.362h9.903l-27.646,45.439v41.635h-8.737v-41.635
		L1849.188,1277.413z M1720.114,1277.413h8.73v36.507h44.387v-36.507h8.73v87.074h-8.73v-42.079h-44.387v42.079h-8.73V1277.413z
		 M1604.305,1285.907v29.587l14.752,0.182c5.96,0,10.328-0.544,13.096-1.637c2.772-1.091,4.951-2.831,6.531-5.252
		c1.575-2.428,2.365-5.159,2.365-8.148c0-2.906-0.79-5.598-2.365-8.024c-1.58-2.427-3.681-4.141-6.268-5.174
		c-2.588-1.033-6.812-1.533-12.713-1.533H1604.305z M1595.573,1277.413h17.36c9.944,0,16.674,0.429,20.148,1.296
		c4.972,1.234,9.036,3.738,12.19,7.559c3.17,3.802,4.745,8.594,4.745,14.35c0,5.805-1.533,10.57-4.626,14.35
		c-3.071,3.759-7.317,6.29-12.713,7.601c-3.961,0.95-11.339,1.416-22.151,1.416h-6.223v40.504h-8.731V1277.413z M1487.54,1295.687
		l-14.979,31.694h29.893L1487.54,1295.687z M1488.631,1277.413l40.627,87.074h-9.361l-13.602-28.623h-37.735l-13.518,28.623h-9.703
		l41.108-87.074H1488.631z M1335.69,1285.907v29.587l15.036,0.124c5.841,0,10.147-0.548,12.936-1.658
		c2.788-1.115,4.972-2.871,6.548-5.297c1.559-2.428,2.349-5.133,2.349-8.144c0-2.912-0.79-5.582-2.391-7.967
		c-1.574-2.386-3.656-4.079-6.243-5.112c-2.565-1.033-6.852-1.533-12.831-1.533H1335.69z M1326.959,1277.413h17.381
		c9.682,0,16.25,0.408,19.688,1.197c5.194,1.172,9.397,3.697,12.63,7.596c3.253,3.883,4.87,8.67,4.87,14.35
		c0,4.73-1.11,8.896-3.356,12.476c-2.221,3.594-5.416,6.305-9.578,8.144c-4.142,1.838-9.884,2.767-17.2,2.809l31.349,40.504h-10.694
		l-31.348-40.504h-5.01v40.504h-8.731V1277.413z M1251.995,1292.01l-6.754,6.388c-4.87-4.771-10.209-8.391-16.002-10.854
		c-5.805-2.468-11.464-3.702-16.978-3.702c-6.855,0-13.385,1.678-19.57,5.034c-6.202,3.356-11.014,7.899-14.409,13.662
		c-3.416,5.742-5.115,11.805-5.115,18.214c0,6.546,1.758,12.769,5.277,18.691c3.516,5.902,8.388,10.533,14.592,13.905
		c6.225,3.377,13.018,5.076,20.411,5.076c8.975,0,16.575-2.531,22.781-7.561c6.208-5.033,9.884-11.581,11.036-19.605h-27.775v-8.488
		h37.596c-0.083,13.44-4.084,24.133-12.005,32.034c-7.942,7.905-18.532,11.866-31.835,11.866c-16.127,0-28.902-5.479-38.32-16.451
		c-7.234-8.453-10.852-18.212-10.852-29.309c0-8.226,2.081-15.908,6.225-23.02c4.162-7.095,9.863-12.656,17.097-16.657
		c7.257-4.003,15.444-6,24.577-6c7.398,0,14.374,1.332,20.9,3.98C1239.4,1281.885,1245.787,1286.129,1251.995,1292.01z
		 M1051.434,1283.723c-6.426,0-12.53,1.679-18.31,5.029c-5.76,3.356-10.268,7.864-13.521,13.545
		c-3.234,5.7-4.851,12.026-4.851,19.017c0,10.326,3.576,19.059,10.753,26.174c7.172,7.136,15.824,10.693,25.929,10.693
		c6.772,0,13.017-1.637,18.756-4.91c5.76-3.278,10.247-7.76,13.462-13.439c3.211-5.68,4.83-11.986,4.83-18.94
		c0-6.914-1.619-13.158-4.83-18.734c-3.215-5.582-7.762-10.048-13.604-13.404
		C1064.208,1285.401,1058.005,1283.723,1051.434,1283.723z M1051.052,1275.234c13.177,0,24.212,4.404,33.085,13.198
		c8.871,8.788,13.319,19.62,13.319,32.479c0,12.755-4.427,23.566-13.278,32.438c-8.874,8.875-19.668,13.322-32.42,13.322
		c-12.896,0-23.791-4.426-32.662-13.261c-8.874-8.835-13.319-19.523-13.319-32.075c0-8.365,2.021-16.111,6.062-23.263
		c4.043-7.136,9.56-12.732,16.554-16.775C1035.367,1277.253,1042.927,1275.234,1051.052,1275.234z M896.392,1285.907v-8.494h47.658
		v8.494h-19.402v78.58h-8.853v-78.58H896.392z M788.603,1283.723c-6.426,0-12.529,1.679-18.31,5.029
		c-5.76,3.356-10.268,7.864-13.521,13.545c-3.235,5.7-4.854,12.026-4.854,19.017c0,10.326,3.579,19.059,10.753,26.174
		c7.175,7.136,15.826,10.693,25.931,10.693c6.772,0,13.017-1.637,18.756-4.91c5.761-3.278,10.248-7.76,13.462-13.439
		c3.211-5.68,4.83-11.986,4.83-18.94c0-6.914-1.619-13.158-4.83-18.734c-3.214-5.582-7.761-10.048-13.601-13.404
		C801.377,1285.401,795.174,1283.723,788.603,1283.723z M788.221,1275.234c13.177,0,24.211,4.404,33.085,13.198
		c8.871,8.788,13.316,19.62,13.316,32.479c0,12.755-4.425,23.566-13.275,32.438c-8.874,8.875-19.668,13.322-32.419,13.322
		c-12.896,0-23.791-4.426-32.662-13.261c-8.874-8.835-13.319-19.523-13.319-32.075c0-8.365,2.021-16.111,6.062-23.263
		c4.043-7.136,9.56-12.732,16.552-16.775C772.537,1277.253,780.093,1275.234,788.221,1275.234z M610.845,1277.413h8.731v36.507
		h44.383v-36.507h8.732v87.074h-8.732v-42.079h-44.383v42.079h-8.731V1277.413z M495.031,1285.907v29.587l14.755,0.182
		c5.961,0,10.327-0.544,13.098-1.637c2.768-1.091,4.949-2.831,6.526-5.252c1.578-2.428,2.365-5.159,2.365-8.148
		c0-2.906-0.787-5.598-2.365-8.024c-1.577-2.427-3.679-4.141-6.266-5.174c-2.587-1.033-6.811-1.533-12.712-1.533H495.031z
		 M486.299,1277.413h17.362c9.942,0,16.676,0.429,20.151,1.296c4.97,1.234,9.034,3.738,12.187,7.559
		c3.172,3.802,4.75,8.594,4.75,14.35c0,5.805-1.536,10.57-4.629,14.35c-3.07,3.759-7.317,6.29-12.713,7.601
		c-3.96,0.95-11.339,1.416-22.151,1.416h-6.225v40.504h-8.731V1277.413z"/>
	<polygon fill-rule="evenodd" clip-rule="evenodd" fill="#231F20" points="2112.757,922.735 2147.125,922.735 2147.125,975.61 
		2200,975.61 2200,1009.981 2147.125,1009.981 2112.757,1009.981 2112.757,975.61 	"/>
	<polygon fill-rule="evenodd" clip-rule="evenodd" fill="#231F20" points="2112.757,1477.265 2147.125,1477.265 2147.125,1424.388 
		2200,1424.388 2200,1390.021 2147.125,1390.021 2112.757,1390.021 2112.757,1424.388 	"/>
	<polygon fill-rule="evenodd" clip-rule="evenodd" fill="#231F20" points="287.244,922.735 252.875,922.735 252.875,975.61 
		200,975.61 200,1009.981 252.875,1009.981 287.244,1009.981 287.244,975.61 	"/>
	<polygon fill-rule="evenodd" clip-rule="evenodd" fill="#231F20" points="287.244,1477.265 252.875,1477.265 252.875,1424.388 
		200,1424.388 200,1390.021 252.875,1390.021 287.244,1390.021 287.244,1424.388 	"/>
</g>
</svg>
