<?xml version="1.0" encoding="utf-8"?>
<!-- Generator: Adobe Illustrator 16.0.0, SVG Export Plug-In . SVG Version: 6.00 Build 0)  -->
<!DOCTYPE svg PUBLIC "-//W3C//DTD SVG 1.1//EN" "http://www.w3.org/Graphics/SVG/1.1/DTD/svg11.dtd">
<svg version="1.1" id="Layer_1" xmlns="http://www.w3.org/2000/svg" xmlns:xlink="http://www.w3.org/1999/xlink" x="0px" y="0px"
	 width="256px" height="256px" viewBox="0 0 256 256" enable-background="new 0 0 256 256" xml:space="preserve">
<circle fill="#FFFFFF" cx="128" cy="128" r="128"/>
<g>
	<g>
		<path fill="#231F20" d="M156.284,99.716c2.5,2.5,2.5,6.551,0,9.051l-47.518,47.517c-2.5,2.499-6.551,2.499-9.051,0l0,0
			c-2.499-2.499-2.5-6.552,0-9.051l47.518-47.517C149.733,97.216,153.785,97.217,156.284,99.716L156.284,99.716z"/>
	</g>
	<g>
		<path fill="#231F20" d="M156.284,156.284c-2.499,2.499-6.552,2.5-9.052,0l-47.517-47.518c-2.5-2.5-2.499-6.552,0-9.051l0,0
			c2.499-2.5,6.551-2.5,9.051,0l47.516,47.517C158.783,149.732,158.783,153.784,156.284,156.284L156.284,156.284z"/>
	</g>
	<g>
		<polygon fill="#231F20" points="73.887,195.199 68.731,195.199 68.731,187.269 60.8,187.269 60.8,182.112 68.731,182.112 
			73.887,182.112 73.887,187.269 		"/>
		<polygon fill="#231F20" points="195.199,182.112 195.199,187.269 187.269,187.269 187.269,195.199 182.112,195.199 
			182.112,187.269 182.112,182.112 187.269,182.112 		"/>
		<polygon fill="#231F20" points="60.8,73.887 60.8,68.731 68.731,68.731 68.731,60.8 73.887,60.8 73.887,68.731 73.887,73.887 
			68.731,73.887 		"/>
		<polygon fill="#231F20" points="182.112,60.8 187.269,60.8 187.269,68.731 195.199,68.731 195.199,73.887 187.269,73.887 
			182.112,73.887 182.112,68.731 		"/>
	</g>
</g>
</svg>
